<?xml version="1.0" encoding="utf-8"?>
<!-- Generator: Adobe Illustrator 15.0.0, SVG Export Plug-In . SVG Version: 6.00 Build 0)  -->
<!DOCTYPE svg PUBLIC "-//W3C//DTD SVG 1.1//EN" "http://www.w3.org/Graphics/SVG/1.1/DTD/svg11.dtd">
<svg version="1.1" id="Layer_1" xmlns="http://www.w3.org/2000/svg" xmlns:xlink="http://www.w3.org/1999/xlink" x="0px" y="0px"
	 width="800px" height="153.276px" viewBox="0 0 800 153.276" enable-background="new 0 0 800 153.276" xml:space="preserve">
<g>
	<path d="M2.774,39.012h21.001v10.969h0.313c5.798-8.305,14.262-13.164,24.762-13.164c10.186,0,19.277,3.761,23.665,13.478
		c4.701-7.052,13.164-13.478,24.448-13.478c17.239,0,29.62,7.993,29.62,28.994v54.225h-22.254V74.117
		c0-10.814-0.94-19.747-13.635-19.747c-12.537,0-14.888,10.344-14.888,20.53v45.135H53.551V74.587
		c0-9.403,0.627-20.217-13.478-20.217c-4.388,0-15.045,2.821-15.045,18.649v47.017H2.774V39.012z"/>
	<path d="M177.818,130.223c-4.859,13.008-12.538,18.334-27.897,18.334c-4.544,0-9.089-0.312-13.634-0.782v-18.336
		c4.231,0.312,8.619,0.941,13.008,0.784c7.68-0.784,10.187-8.778,7.68-15.201l-28.524-76.01h23.821l18.336,55.478h0.313
		l17.709-55.478h23.038L177.818,130.223z"/>
	<path d="M215.267,8.137h52.659c21.314,0,35.732,6.896,35.732,27.74c0,10.971-5.486,18.65-15.203,23.352
		c13.635,3.918,20.531,14.418,20.531,28.367c0,22.726-19.277,32.441-39.494,32.441h-54.226V8.137z M239.873,53.43h24.918
		c8.62,0,15.045-3.918,15.045-13.321c0-10.657-8.149-12.852-16.925-12.852h-23.038V53.43z M239.873,100.917h26.33
		c9.716,0,18.179-3.137,18.179-14.734c0-11.439-7.208-15.984-17.709-15.984h-26.799V100.917z"/>
	<path d="M335.304,84.929c0.627,14.104,7.523,20.532,19.904,20.532c8.932,0,16.142-5.486,17.552-10.5h19.59
		c-6.269,19.119-19.59,27.27-37.927,27.27c-25.545,0-41.374-17.554-41.374-42.628c0-24.293,16.769-42.786,41.374-42.786
		c27.583,0,40.905,23.194,39.337,48.112H335.304z M371.506,70.826c-2.037-11.284-6.895-17.24-17.709-17.24
		c-14.104,0-18.179,10.971-18.493,17.24H371.506z"/>
	<path d="M458.478,109.691h-0.312c-5.173,8.778-14.262,12.541-24.606,12.541c-24.447,0-36.358-21.002-36.358-43.413
		c0-21.784,12.068-42.001,35.889-42.001c9.561,0,18.964,4.075,23.979,12.067h0.312V8.137h22.254v111.899h-21.157V109.691z
		 M439.045,53.586c-14.575,0-19.591,12.538-19.591,25.859c0,12.693,5.798,26.016,19.591,26.016c14.731,0,19.12-12.851,19.12-26.173
		C458.165,66.124,453.464,53.586,439.045,53.586z"/>
	<path d="M509.245,82.893c0,14.887,11.599,20.687,24.762,20.687c8.62,0,21.783-2.508,21.783-13.949
		c0-12.066-16.768-14.104-33.223-18.492c-16.613-4.388-33.383-10.814-33.383-31.814c0-22.882,21.629-33.853,41.844-33.853
		c23.353,0,44.822,10.188,44.822,36.046h-23.82c-0.784-13.478-10.345-16.925-22.099-16.925c-7.836,0-16.925,3.291-16.925,12.693
		c0,8.62,5.328,9.718,33.381,16.926c8.148,2.037,33.226,7.209,33.226,32.6c0,20.528-16.144,35.886-46.546,35.886
		c-24.762,0-47.957-12.223-47.643-39.806H509.245z"/>
	<path d="M613.767,39.012h16.299v14.888h-16.299V94.02c0,7.522,1.882,9.403,9.403,9.403c2.351,0,4.545-0.155,6.896-0.627v17.395
		c-3.76,0.629-8.619,0.787-13.008,0.787c-13.636,0-25.544-3.137-25.544-19.278v-47.8h-13.48V39.012h13.48V14.72h22.253V39.012z"/>
	<path d="M710.459,120.036h-21.157v-11.284h-0.472c-5.641,9.089-15.356,13.48-24.762,13.48c-23.663,0-29.618-13.323-29.618-33.383
		V39.012h22.254v45.762c0,13.32,3.917,19.903,14.262,19.903c12.066,0,17.239-6.74,17.239-23.195v-42.47h22.254V120.036z"/>
	<path d="M761.071,130.223c-4.859,13.008-12.538,18.334-27.897,18.334c-4.544,0-9.088-0.312-13.635-0.782v-18.336
		c4.232,0.312,8.621,0.941,13.008,0.784c7.68-0.784,10.188-8.778,7.68-15.201l-28.521-76.01h23.819l18.337,55.478h0.314
		l17.71-55.478h23.038L761.071,130.223z"/>
</g>
</svg>
